<svg width="179" height="235" viewBox="0 0 179 235" fill="none" xmlns="http://www.w3.org/2000/svg">
<path d="M9.02924 65.9079L11.6361 66.1862C11.7707 65.8607 11.9054 65.5403 12.0454 65.22L9.11541 64.989C9.0831 65.2935 9.05617 65.6034 9.02924 65.9079Z" fill="white"/>
<path d="M96.1561 40.8273C96.2315 40.8903 96.3069 40.948 96.3769 41.011L98.4451 40.6277L113.197 19.9701C112.939 19.7915 112.686 19.613 112.422 19.4345L96.1561 40.8273Z" fill="white"/>
<path d="M47.7389 46.3568C48.369 46.2361 49.1177 46.11 49.931 46.0103L28.7963 25.8042C28.5701 26.0195 28.3385 26.2295 28.1177 26.4448L47.7389 46.3568Z" fill="white"/>
<path d="M73.1408 41.5462L69.8984 8.01823C69.5807 8.03924 69.2629 8.06549 68.9505 8.09175L71.1749 41.9138L73.1408 41.5462Z" fill="white"/>
<path d="M88.0013 101.648L87.8397 101.669C87.802 101.674 87.7589 101.674 87.7158 101.679L101.445 129.731C101.736 129.605 102.021 129.478 102.306 129.347L89.5255 101.097C89.0839 101.38 88.5614 101.574 88.0013 101.648Z" fill="white"/>
<path d="M62.4811 43.5366L47.7235 13.3903C47.4327 13.5163 47.1472 13.6424 46.8618 13.7736L60.4937 43.9095L62.4811 43.5366Z" fill="white"/>
<path d="M77.5738 99.8835C77.1106 99.6997 76.6743 99.5054 76.2542 99.3006L75.8179 99.3847L79.2704 135.098C79.5882 135.072 79.9006 135.051 80.2184 135.025L77.9131 100.01C77.8 99.9675 77.6869 99.9308 77.5738 99.8835Z" fill="white"/>
<path d="M35.9762 123.151C36.2347 123.335 36.4933 123.503 36.7518 123.681L50.0067 106.253C49.4304 106.232 48.8649 106.09 48.3532 105.817L35.9762 123.151Z" fill="white"/>
<path d="M140.139 77.2138L119.731 75.0136L119.737 76.5312L140.053 78.1327C140.09 77.8229 140.117 77.5184 140.139 77.2138Z" fill="white"/>
<path d="M64.7705 102.32L56.5299 132.834C56.8315 132.918 57.1439 132.991 57.4455 133.07L66.5479 103.05C65.9069 102.961 65.2929 102.714 64.7705 102.32Z" fill="white"/>
<path d="M120.873 92.1852C120.528 92.5737 120.098 92.8835 119.602 93.1041L133.794 99.4054C133.934 99.1323 134.069 98.854 134.204 98.5757L120.873 92.1852Z" fill="white"/>
<path d="M28.5323 101.937L29.0978 101.06L20.0709 107.261C20.2486 107.519 20.4371 107.76 20.6149 108.012L28.0206 103.244C28.1014 102.782 28.2683 102.341 28.5323 101.937Z" fill="white"/>
<path d="M84.791 39.3514L92.6438 10.292C92.3368 10.208 92.0352 10.124 91.7282 10.0452L82.7228 39.74L84.791 39.3514Z" fill="white"/>
<path d="M101.268 96.6015C100.794 96.801 100.287 96.9113 99.781 96.9113C99.4848 96.9113 99.194 96.8693 98.9085 96.801L120.366 117.317C120.593 117.107 120.824 116.892 121.045 116.676L101.268 96.6015Z" fill="white"/>
<path d="M26.0654 82.9902L20.394 84.492C20.3347 84.9174 20.2701 85.348 20.2162 85.7786L26.0654 84.4028V82.9902Z" fill="white"/>
<path d="M22.4027 48.1061C22.672 47.7753 22.9305 47.4602 23.1783 47.1767L15.374 43.711C15.234 43.9893 15.0993 44.2623 14.9647 44.5406L22.4027 48.1061Z" fill="white"/>
<path d="M55.4849 2.35217L65.7994 42.918L67.7815 42.5504L56.1905 2.16838C55.9535 2.22614 55.7219 2.28916 55.4849 2.35217Z" fill="white"/>
<path d="M22.2199 122.164L36.7567 108.658C36.3151 108.637 35.8842 108.606 35.4425 108.553C35.3133 108.538 35.1894 108.517 35.0655 108.496L21.7136 121.66C21.8806 121.828 22.0476 122.001 22.2199 122.164Z" fill="white"/>
<path d="M3.10974 52.9688L16.4024 56.7023C16.6017 56.3663 16.8009 56.0355 17.0002 55.7151L3.29825 52.2915C3.23361 52.512 3.16899 52.743 3.10974 52.9688Z" fill="white"/>
<path d="M91.567 38.8734L106.578 6.95753C106.362 6.85776 106.136 6.75799 105.921 6.65822L89.6173 38.7579C89.6981 38.7579 89.7789 38.7527 89.8543 38.7527C90.4521 38.7579 91.0177 38.7999 91.567 38.8734Z" fill="white"/>
<path d="M42.5959 136.163C42.8167 136.263 43.0375 136.363 43.253 136.462L60.6605 102.184L58.3768 102.604L42.5959 136.163Z" fill="white"/>
<path d="M81.5649 101.154L92.989 140.948C93.226 140.89 93.4576 140.827 93.6892 140.77L83.7248 101.569C83.0677 101.475 82.3459 101.343 81.5649 101.154Z" fill="white"/>
<path d="M112.956 33.9589C113.526 33.9747 114.087 34.0219 114.641 34.0954L127.465 21.4562C127.298 21.2881 127.131 21.1201 126.959 20.9521L112.956 33.9589Z" fill="white"/>
<path d="M32.7821 12.4556C32.5828 12.5868 32.3835 12.7234 32.1843 12.8599L55.2848 46.2251C55.8773 46.3774 56.432 46.5769 56.9545 46.8237C57.0299 46.4509 57.1753 46.0991 57.3638 45.7788L32.7821 12.4556Z" fill="white"/>
<path d="M0.799072 77.0458C0.81523 77.2821 0.842158 77.5132 0.863702 77.7442L8.07556 77.2769C8.14557 76.9618 8.22636 76.652 8.30177 76.3422L0.799072 77.0458Z" fill="white"/>
<path d="M146.063 90.1527L119.769 82.7697V82.8485C119.995 82.964 120.216 83.0953 120.421 83.2528C120.922 83.6571 121.293 84.1718 121.519 84.7441L145.875 90.8301C145.934 90.6095 145.999 90.3785 146.063 90.1527Z" fill="white"/>
<path d="M93.3659 96.1499L91.2169 96.5437L116.386 130.665C116.585 130.534 116.784 130.397 116.983 130.266L93.3659 96.1499Z" fill="white"/>
<path d="M31.8606 43.0751L33.7995 42.739L14.4207 29.8582C14.2807 30.0472 14.1406 30.2415 14.0006 30.4305L31.8606 43.0751Z" fill="white"/>
<path d="M77.1159 40.7965L78.5594 40.5234L81.8126 0.277921C81.5703 0.256916 81.3333 0.23591 81.0909 0.214905L76.5342 40.9593C76.7227 40.891 76.9112 40.8333 77.1159 40.7965Z" fill="white"/>
<path d="M72.1606 102.163L70.6202 102.462L67.3561 142.839C67.5985 142.86 67.8355 142.881 68.0779 142.902L72.6508 102.031C72.4946 102.089 72.3276 102.131 72.1606 102.163Z" fill="white"/>
<path d="M31.6071 89.8536L7.17621 101.149C7.27854 101.364 7.38088 101.574 7.48321 101.784L32.3342 91.1663C32.0487 90.7515 31.801 90.3104 31.6071 89.8536Z" fill="white"/>
<path d="M110.171 94.9893L107.903 95.4147L134.753 113.258C134.893 113.069 135.033 112.874 135.173 112.685L110.171 94.9893Z" fill="white"/>
<path d="M134.813 45.2915L141.992 41.9728C141.89 41.7575 141.788 41.5474 141.685 41.3322L134.813 44.2727V45.2915Z" fill="white"/>
<path d="M122.694 67.1735L122.096 68.4547L148.369 66.0707C148.347 65.8344 148.326 65.6034 148.304 65.3723L122.694 67.1735Z" fill="white"/>
<path d="M27.8807 47.4078C27.1536 48.1745 11.5444 63.8495 10.1817 88.6773C10.1979 88.6773 16.2627 87.5063 16.3004 87.4958C17.7224 73.3122 22.5699 61.5337 29.6043 52.8901L29.7605 52.6958V68.4495L22.6346 69.8306C21.7081 72.3407 20.9918 75.4337 20.9433 75.8275L29.7605 74.0001V84.9595L35.9061 83.8042L35.7769 46.032L27.8807 47.4078ZM131.118 57.485V34.2955L125.478 35.3405L125.495 63.4084L139.833 60.6987V55.8046L131.118 57.485ZM95.2835 63.6552C92.1433 62.2846 90.2635 60.1211 90.2743 60.1053C93.032 55.0694 95.1003 51.278 95.235 48.6944C95.5905 42.0253 91.2923 41.7732 85.9815 42.7762L77.8214 44.3148V72.4195L83.45 71.364V48.2165C87.1503 47.5233 89.0462 46.9562 89.127 49.3298C89.2132 51.9817 86.7086 56.1931 84.1071 61.2711C84.1071 61.2711 86.2993 66.0812 92.7843 68.6386C99.7701 71.3955 103.562 70.5028 103.562 70.5133V64.9995C103.557 64.9995 99.8132 65.6244 95.2835 63.6552ZM110.139 57.8788C105.953 58.6822 102.56 55.9516 102.56 51.7926C102.56 47.6179 105.953 43.5902 110.139 42.792C114.324 41.9885 117.706 44.7192 117.706 48.8834C117.712 53.0424 114.329 57.0754 110.139 57.8788ZM110.128 37.756C103.153 39.0951 97.5079 45.8114 97.5079 52.7483C97.5079 59.6957 103.158 64.2486 110.155 62.9095C117.124 61.5704 122.769 54.8593 122.769 47.9172C122.775 40.9698 117.114 36.4117 110.128 37.756ZM66.2034 61.7175L72.9038 60.4677L72.9092 56.5817L66.2034 57.8315V50.5638L74.3043 49.0567V44.9712L60.5749 47.5339L60.5856 75.6438L74.9344 72.9026L74.9452 67.9927L66.198 69.7098V61.7175H66.2034ZM51.6446 57.9786C50.9174 60.2314 45.9137 66.1863 45.9137 66.1863L45.8275 55.1692C51.3106 53.6515 52.7918 54.434 51.6446 57.9786ZM47.5726 50.0387L40.3013 51.3883L40.312 79.4877L45.919 78.4007L45.9945 73.538C45.9945 73.538 57.8872 62.1165 57.9087 55.1324C57.9302 47.7176 50.6643 49.4558 47.5726 50.0387Z" fill="white"/>
<path d="M137.355 35.3719C137.457 35.3719 137.554 35.3719 137.651 35.3666C137.743 35.3614 137.823 35.3456 137.893 35.3141C137.969 35.2826 138.023 35.2406 138.066 35.1776C138.109 35.1146 138.13 35.0253 138.13 34.915C138.13 34.8205 138.109 34.747 138.066 34.6892C138.028 34.6367 137.985 34.5895 137.92 34.558C137.861 34.5265 137.791 34.5055 137.71 34.495C137.63 34.4845 137.554 34.4792 137.479 34.4792L136.876 34.4687V35.3666L137.355 35.3719ZM137.554 34.1221C137.899 34.1274 138.157 34.1956 138.324 34.3269C138.486 34.4635 138.572 34.6682 138.572 34.936C138.572 35.1933 138.497 35.3771 138.351 35.4927C138.2 35.6082 138.017 35.6764 137.802 35.6974L138.637 36.9525L138.152 36.9472L137.355 35.7237L136.876 35.7185V36.9367L136.423 36.9315V34.1116L137.554 34.1221ZM135.491 36.3171C135.594 36.5691 135.739 36.7897 135.928 36.9787C136.111 37.1677 136.332 37.3148 136.585 37.4251C136.838 37.5353 137.107 37.5931 137.403 37.5931C137.694 37.5983 137.963 37.5511 138.211 37.4461C138.459 37.341 138.68 37.1992 138.863 37.0155C139.046 36.8317 139.191 36.6164 139.294 36.3643C139.402 36.1123 139.455 35.8392 139.455 35.5399C139.455 35.2511 139.402 34.9833 139.294 34.7313C139.191 34.4792 139.046 34.2587 138.863 34.0749C138.68 33.8911 138.459 33.7441 138.211 33.6338C137.963 33.5288 137.694 33.471 137.403 33.4658C137.107 33.4605 136.838 33.513 136.585 33.6128C136.337 33.7125 136.116 33.8596 135.928 34.0381C135.744 34.2166 135.599 34.4319 135.491 34.684C135.389 34.9308 135.335 35.1986 135.335 35.4927C135.335 35.7867 135.389 36.065 135.491 36.3171ZM135.082 34.5422C135.217 34.2482 135.4 33.9961 135.626 33.7861C135.852 33.5708 136.121 33.408 136.428 33.2925C136.73 33.1717 137.053 33.1139 137.398 33.1192C137.743 33.1244 138.06 33.1927 138.367 33.3135C138.674 33.4395 138.938 33.6128 139.165 33.8333C139.391 34.0486 139.569 34.3112 139.703 34.6C139.838 34.894 139.902 35.2144 139.902 35.5504C139.902 35.897 139.838 36.2226 139.703 36.5166C139.569 36.8107 139.391 37.0627 139.165 37.278C138.938 37.4933 138.674 37.6613 138.367 37.7769C138.06 37.8924 137.743 37.9502 137.398 37.9449C137.053 37.9449 136.73 37.8766 136.428 37.7506C136.121 37.6298 135.852 37.4566 135.626 37.236C135.4 37.0155 135.217 36.7582 135.082 36.4589C134.947 36.1648 134.883 35.8392 134.883 35.4874C134.883 35.1461 134.947 34.831 135.082 34.5422Z" fill="white"/>
<path d="M85.0282 92.0959L88.9655 91.3607V79.0098L85.0282 79.7555V92.0959ZM91.7286 76.1111L95.6605 75.3759V93.9181L99.5978 93.1829V74.625L103.557 73.8846V70.424L91.7286 72.6453V76.1111ZM117.862 67.7879L106.32 69.9619L106.325 73.3699L112.584 72.1832L105.754 91.9961L117.884 89.7223V86.2407L110.941 87.543L117.862 67.7879ZM86.951 73.643C85.7715 73.643 84.8127 74.5725 84.8127 75.712C84.8127 76.8568 85.7715 77.781 86.951 77.781C88.1306 77.781 89.0894 76.8515 89.0894 75.712C89.0894 74.5725 88.1306 73.643 86.951 73.643ZM44.7772 91.1822C44.5294 90.9248 44.2386 90.6518 43.8992 90.3525C43.5868 90.0741 43.2098 89.7801 42.7843 89.4755C42.2942 89.1499 41.8148 88.8244 41.3408 88.504C40.8722 88.1837 40.409 87.8529 39.9512 87.522C39.391 87.1177 39.1648 86.8971 38.9978 86.6976C38.777 86.4403 38.7393 86.0044 38.8955 85.6263C39.084 85.1747 39.5041 84.8754 40.0481 84.8124C40.1397 84.8019 40.2313 84.7967 40.3282 84.7967C41.1577 84.7967 41.9656 85.201 42.3426 85.4268L44.4917 82.1763L44.0501 81.9977C43.2744 81.6827 42.5258 81.4989 41.8256 81.4411C41.6801 81.4306 41.5239 81.4253 41.3623 81.4253H41.2762C40.7214 81.4306 40.102 81.4989 39.4341 81.6301C38.1414 81.8822 37.0749 82.4388 36.2616 83.2738C35.8092 83.7464 35.4591 84.2873 35.2275 84.8702C34.9905 85.4583 34.8774 86.1147 34.8774 86.8236C34.8774 87.2595 34.942 87.6848 35.0713 88.0892C35.2006 88.4935 35.4052 88.8874 35.6745 89.2392C35.8684 89.507 36.127 89.7853 36.434 90.0637C36.7302 90.3262 37.0965 90.6203 37.5274 90.9248C37.9206 91.2032 38.303 91.4605 38.6693 91.6968L39.7034 92.3637C40.4144 92.8363 40.9692 93.2406 41.357 93.5662C41.8471 94.0021 42.2403 94.4852 42.515 95.0051C42.8112 95.5879 42.962 96.2076 42.962 96.843C42.962 98.014 42.6281 98.9435 41.9387 99.6787C41.6209 100.015 41.2546 100.293 40.8453 100.519C40.4413 100.739 39.9619 100.902 39.4341 101.002C39.3533 101.018 39.0517 101.07 38.5669 101.07C38.0445 101.07 37.5112 101.007 37.0211 100.892C36.3963 100.745 35.0336 100.052 34.5057 99.7784L31.9365 103.738L32.4051 103.901C32.9114 104.079 33.3369 104.216 33.6978 104.326C34.0856 104.442 34.4196 104.536 34.7158 104.61C35.1144 104.699 35.513 104.767 35.9008 104.814C36.2886 104.862 36.6656 104.893 37.0265 104.904C37.1504 104.909 37.2796 104.909 37.4089 104.909H37.4574C37.6782 104.909 37.9206 104.898 38.206 104.872C38.6208 104.841 39.0786 104.778 39.5634 104.683C41.6101 104.284 43.3499 103.328 44.7395 101.832C46.1884 100.256 46.9209 98.4289 46.9209 96.4019C46.9209 95.3254 46.7216 94.3382 46.3176 93.4664C45.9352 92.6157 45.4128 91.8438 44.7772 91.1822ZM59.4169 85.5633C58.8244 87.3908 54.9355 92.0381 54.7686 92.2324L54.3323 92.7523L54.2569 83.0532L54.44 83.006C55.8997 82.6016 56.9931 82.4021 57.7848 82.4021C58.5874 82.4021 59.126 82.6016 59.433 83.006C59.8154 83.5206 59.81 84.3293 59.4169 85.5633ZM59.6269 78.8785C58.4258 78.8785 57.1924 79.1148 56.2982 79.2881L55.9482 79.3511L50.3142 80.4014L50.3196 102.467L54.3323 101.69L54.3485 97.8985L54.5639 97.7095C54.6555 97.6202 63.9305 88.6563 63.952 83.2108C63.9574 81.7352 63.5858 80.6272 62.8586 79.9182C62.1369 79.2146 61.0812 78.8785 59.6269 78.8785Z" fill="white"/>
<path d="M87.3274 94.075C87.1066 94.0907 86.7996 94.1117 86.4118 94.1117C85.1084 94.1117 83.0832 93.9017 80.8265 92.9197C78.2843 91.8118 76.6739 90.0527 76.6093 89.8794L76.5608 89.7533L76.6254 89.6378C78.7906 85.6943 80.4979 82.5752 80.6003 80.5377C80.6972 78.7314 80.3741 77.4711 79.6093 76.6992C78.9576 76.0376 77.9611 75.712 76.5554 75.712C75.7152 75.712 74.7403 75.8223 73.48 76.0586L73.2161 76.1111L73.076 76.1374L72.7906 76.1899L67.2322 77.2243L67.243 99.2893L71.2502 98.5121L71.2664 79.8866L71.3256 79.8761C71.5518 79.8341 71.778 79.7921 71.9881 79.7501C73.0545 79.5453 73.8893 79.3825 74.5464 79.3825C75.6883 79.3825 76.2376 79.9181 76.2753 81.0628C76.34 82.9217 74.9611 85.5525 73.2215 88.8764C72.9091 89.475 72.5805 90.0947 72.2574 90.73C72.6075 91.3969 74.4979 94.6158 79.0491 96.4064C82.3992 97.7244 84.8229 98.0028 86.2663 98.0028C86.5518 98.0028 86.9504 97.9923 87.3328 97.9397L87.3274 94.075Z" fill="white"/>
<path d="M124.615 202.972L29.7781 198.654V176.052L124.615 180.374V202.972Z" fill="black"/>
<path d="M134.579 175.05L29.7781 198.654V176.052L134.579 152.448L125.007 165.866L134.579 175.05Z" fill="#086D38"/>
<path d="M124.615 209.446L14.1445 235L26.4539 217.739L14.1445 205.925L124.615 180.374V209.446Z" fill="#B42132"/>
<path opacity="0.1" d="M26.4539 217.739L14.1445 205.925L124.615 180.374L14.1445 235" fill="white"/>
<path opacity="0.1" d="M29.7781 198.654V176.052L134.579 152.448L29.7781 198.654Z" fill="white"/>
<path d="M49.4104 192.049L46.5605 192.689L45.9644 175.067L48.8143 174.427L49.4104 192.049Z" fill="#086D38"/>
<path d="M59.8748 171.941L59.9662 173.969L56.7464 174.694L57.2511 190.288L54.4011 190.929L53.8964 175.335L50.533 176.09L50.4416 174.062L59.8748 171.941Z" fill="#086D38"/>
<path d="M65.7446 170.622L70.9573 187.204L68.0768 187.853L67.1587 184.599L62.8859 185.558L62.2115 189.172L59.4181 189.8L63.4951 171.126L65.7446 170.622ZM66.0274 180.451L64.7221 174.291L64.6655 174.304L63.2688 183.636L66.6888 182.869L66.0274 180.451Z" fill="#086D38"/>
<path d="M75.0908 168.522L75.626 184.107L80.4122 183.03L80.4731 185.066L72.8369 186.784L72.2408 169.162L75.0908 168.522Z" fill="#086D38"/>
<path d="M85.1201 184.023L82.2701 184.663L81.674 167.041L84.524 166.401L85.1201 184.023Z" fill="#086D38"/>
<path d="M93.3002 164.428L98.5129 181.011L95.6324 181.66L94.7144 178.406L90.4372 179.365L89.7628 182.979L86.9694 183.607L91.0464 164.933L93.3002 164.428ZM93.5831 174.257L92.2777 168.098L92.2212 168.11L90.8245 177.443L94.2444 176.675L93.5831 174.257Z" fill="#086D38"/>
<path d="M102.407 167.656L103.034 173.472L103.243 179.95L100.393 180.591L99.7965 162.969L102.533 162.354L108.016 174.614L108.064 174.558L107.15 167.652L106.924 161.37L109.774 160.729L110.37 178.351L107.72 178.945L102.255 166.49L102.207 166.549L102.407 167.656Z" fill="#086D38"/>
<path d="M48.4053 192.049L45.5553 192.689L44.9592 175.067L47.8092 174.427L48.4053 192.049Z" fill="white"/>
<path d="M58.8697 171.941L58.9611 173.969L55.7413 174.694L56.246 190.288L53.396 190.929L52.8913 175.335L49.5278 176.09L49.4365 174.062L58.8697 171.941Z" fill="white"/>
<path d="M64.7394 170.622L69.952 187.204L67.0716 187.849L66.1535 184.595L61.8763 185.554L61.2019 189.168L58.4085 189.796L62.4855 171.122L64.7394 170.622ZM65.0222 180.451L63.7169 174.291L63.6603 174.304L62.2636 183.636L65.6836 182.869L65.0222 180.451Z" fill="white"/>
<path d="M74.0856 168.522L74.6208 184.107L79.407 183.03L79.4679 185.066L71.8317 186.784L71.2356 169.162L74.0856 168.522Z" fill="white"/>
<path d="M84.115 184.023L81.265 184.663L80.6689 167.041L83.5189 166.401L84.115 184.023Z" fill="white"/>
<path d="M92.2951 164.428L97.5078 181.011L94.6273 181.66L93.7092 178.406L89.4321 179.365L88.7577 182.979L85.9642 183.607L90.0412 164.933L92.2951 164.428ZM92.5779 174.253L91.2726 168.093L91.216 168.106L89.8193 177.439L93.2393 176.671L92.5779 174.253Z" fill="white"/>
<path d="M101.402 167.656L102.029 173.472L102.237 179.946L99.3874 180.586L98.7913 162.965L101.528 162.35L107.011 174.614L107.058 174.558L106.145 167.652L105.918 161.37L108.768 160.729L109.365 178.351L106.715 178.945L101.25 166.49L101.202 166.549L101.402 167.656Z" fill="white"/>
<path d="M45.255 211.91V212.194C45.3116 215.571 46.0643 221.336 39.9162 222.719C34.4425 223.949 33.7463 220.055 33.6288 215.066C33.5549 210.116 33.99 205.827 39.3114 204.631C42.5834 203.897 44.1542 204.813 45.0201 206.972L42.1048 208.546C41.7785 207.443 41.3347 206.387 39.4419 206.815C36.9357 207.38 36.7921 210.048 36.8965 214.311C36.9966 220.458 38.3498 220.861 39.6943 220.56C40.9474 220.28 42.3224 219.826 42.2571 215.605L42.2223 214.646L39.6508 215.223L39.6203 213.183L45.255 211.91Z" fill="#B42132"/>
<path d="M56.3461 201.033L56.407 203.07L51.2379 204.232L51.3292 209.793L55.9501 208.754L55.9806 210.794L51.3597 211.834L51.4902 217.832L56.6594 216.67L56.6898 218.71L48.4619 220.56L48.1138 202.883L56.3461 201.033Z" fill="#B42132"/>
<path d="M67.9375 198.429L67.9984 200.465L64.5436 201.241L64.8264 216.886L61.7675 217.573L61.4847 201.928L57.8733 202.739L57.8124 200.703L67.9375 198.429Z" fill="#B42132"/>
<path d="M74.3336 196.991L79.6377 213.556L76.5484 214.252L75.6172 210.998L71.0311 212.029L70.2479 215.664L67.25 216.339L71.9188 197.534L74.3336 196.991ZM74.4729 206.849L73.1762 200.69L73.1153 200.703L71.4706 210.09L75.1429 209.267L74.4729 206.849Z" fill="#B42132"/>
<path d="M81.9481 195.277L84.3456 206.773L84.5196 208.054L84.5806 208.041L85.3855 201.903L86.8127 194.187L89.1971 193.652L91.9557 206.268L92.0166 206.255L92.7563 200.389L94.0007 192.575L96.9682 191.909L93.2784 210.493L90.8331 211.045L88.9447 203.201L88.1528 198.904L88.1137 198.467L88.0527 198.48L87.474 203.392L85.7815 212.177L83.2752 212.742L78.9502 195.96L81.9481 195.277Z" fill="#B42132"/>
<path d="M104.004 190.322L109.308 206.887L106.219 207.583L105.288 204.33L100.701 205.36L99.9182 209L96.9203 209.675L101.589 190.869L104.004 190.322ZM104.148 200.181L102.851 194.021L102.79 194.034L101.145 203.422L104.818 202.594L104.148 200.181Z" fill="#B42132"/>
<path d="M110.796 188.795L113.772 196.346L113.833 196.333L114.299 193.945L116.117 187.603L119.39 186.869L115.295 197.89L115.452 205.509L112.393 206.196L112.232 198.577L107.485 189.542L110.796 188.795Z" fill="#B42132"/>
<path d="M44.0237 211.906V212.19C44.0803 215.567 44.833 221.332 38.6849 222.715C33.2112 223.945 32.515 220.051 32.3975 215.062C32.3235 210.112 32.7586 205.823 38.0801 204.626C41.3521 203.893 42.9229 204.809 43.7887 206.968L40.8735 208.542C40.5472 207.439 40.1033 206.383 38.2106 206.811C35.7044 207.375 35.5608 210.044 35.6652 214.307C35.7653 220.454 37.1185 220.857 38.463 220.556C39.7161 220.271 41.0911 219.822 41.0258 215.601L40.991 214.642L38.4195 215.219L38.389 213.179L44.0237 211.906Z" fill="white"/>
<path d="M55.1148 201.029L55.1757 203.065L50.0066 204.228L50.0979 209.789L54.7188 208.75L54.7493 210.79L50.1284 211.83L50.2589 217.828L55.4281 216.666L55.4585 218.706L47.2305 220.556L46.8824 202.879L55.1148 201.029Z" fill="white"/>
<path d="M66.706 198.424L66.767 200.461L63.3122 201.237L63.595 216.882L60.5361 217.569L60.2533 201.924L56.6462 202.734L56.5853 200.698L66.706 198.424Z" fill="white"/>
<path d="M73.1022 196.986L78.4063 213.552L75.317 214.248L74.3858 210.994L69.7997 212.025L69.0165 215.66L66.0186 216.335L70.6874 197.529L73.1022 196.986ZM73.2415 206.845L71.9448 200.686L71.8839 200.698L70.2392 210.086L73.9115 209.259L73.2415 206.845Z" fill="white"/>
<path d="M80.7167 195.277L83.1142 206.773L83.2882 208.054L83.3491 208.041L84.1541 201.903L85.5812 194.187L87.9657 193.652L90.7243 206.268L90.7852 206.255L91.5249 200.389L92.7693 192.575L95.7368 191.909L92.047 210.493L89.6017 211.045L87.7133 203.201L86.9214 198.904L86.8822 198.467L86.8213 198.48L86.2426 203.392L84.55 212.177L82.0438 212.742L77.7188 195.956L80.7167 195.277Z" fill="white"/>
<path d="M102.773 190.318L108.077 206.883L104.987 207.579L104.056 204.325L99.47 205.356L98.6868 208.996L95.6889 209.67L100.358 190.865L102.773 190.318ZM102.916 200.176L101.619 194.017L101.559 194.03L99.9138 203.417L103.586 202.594L102.916 200.176Z" fill="white"/>
<path d="M109.565 188.791L112.541 196.342L112.602 196.329L113.067 193.941L114.886 187.599L118.158 186.865L114.064 197.886L114.22 205.505L111.162 206.192L111.005 198.573L106.258 189.537L109.565 188.791Z" fill="white"/>
<path d="M51.3812 158.241L49.5595 158.649L48.8786 149.209L51.3573 148.65C53.3164 148.208 54.6483 148.714 54.8036 150.851C54.9529 152.855 53.9495 154.072 52.0382 154.497L51.1363 154.701L51.3812 158.241ZM51.0228 153.181L51.3932 153.099C52.4683 152.855 53.0357 152.488 52.9521 151.259C52.8625 150.048 52.1517 150.025 51.1363 150.258L50.8138 150.327L51.0228 153.181Z" fill="white"/>
<path d="M62.4189 155.76L60.215 156.255L57.6765 152.959L57.6526 152.965L57.9274 156.774L56.1057 157.181L55.4248 147.742L57.8916 147.189C59.7372 146.775 61.081 147.311 61.2184 149.332C61.308 150.531 60.7406 151.882 59.4983 152.377L62.4189 155.76ZM57.5511 151.678L57.784 151.626C58.7875 151.399 59.4744 150.939 59.3967 149.786C59.3191 148.621 58.5605 148.563 57.5929 148.778L57.348 148.831L57.5511 151.678Z" fill="white"/>
<path d="M64.2765 147.381L64.4258 149.46L67.3226 148.808L67.4421 150.409L64.5452 151.061L64.7185 153.617L67.7288 152.942L67.8482 154.543L63.0162 155.632L62.3353 146.193L67.1673 145.11L67.2868 146.711L64.2765 147.381Z" fill="white"/>
<path d="M72.9371 145.913C72.5548 145.517 72.0889 145.314 71.4857 145.453C70.9063 145.582 70.3748 146.164 70.4166 146.775C70.53 148.365 74.1973 146.868 74.4243 150.036C74.5557 151.929 73.4866 153.53 71.5813 153.955C70.2911 154.246 69.2937 153.705 68.571 152.761L69.67 151.329C69.9686 151.999 70.6674 152.505 71.4439 152.331C72.1905 152.162 72.6145 151.422 72.5548 150.694C72.4831 149.722 71.5753 149.646 70.8167 149.524C69.5863 149.291 68.6546 148.877 68.553 147.41C68.4455 145.844 69.5027 144.324 71.0795 143.968C71.9098 143.782 73.0804 143.939 73.6956 144.446L72.9371 145.913Z" fill="white"/>
<path d="M76.8433 144.557L76.9926 146.636L79.8894 145.983L80.0088 147.585L77.112 148.237L77.2853 150.793L80.2955 150.118L80.415 151.719L75.583 152.808L74.9021 143.369L79.7341 142.286L79.8535 143.887L76.8433 144.557Z" fill="white"/>
<path d="M80.9407 141.75L82.2547 141.453L87.6362 146.944L87.6601 146.938L87.2061 140.591L89.0278 140.183L89.7266 149.809L88.4126 150.106L83.0192 144.615L82.9953 144.621L83.4552 151.032L81.6335 151.44L80.9407 141.75Z" fill="white"/>
<path d="M94.0688 148.644L92.2471 149.052L91.6856 141.214L89.8042 141.639L89.6848 140.038L95.2693 138.78L95.3888 140.381L93.5073 140.807L94.0688 148.644Z" fill="white"/>
<path d="M100.49 139.723C100.107 139.327 99.6415 139.124 99.0382 139.263C98.4529 139.392 97.9273 139.974 97.9691 140.585C98.0826 142.175 101.75 140.678 101.977 143.846C102.108 145.739 101.039 147.34 99.1338 147.765C97.8437 148.056 96.8462 147.515 96.1235 146.571L97.2225 145.139C97.5211 145.809 98.22 146.315 98.9964 146.141C99.737 145.972 100.161 145.232 100.107 144.504C100.036 143.532 99.1278 143.456 98.3693 143.334C97.1389 143.101 96.2071 142.687 96.1056 141.22C95.9981 139.654 97.0553 138.134 98.6321 137.779C99.4623 137.592 100.633 137.749 101.248 138.256L100.49 139.723Z" fill="white"/>
</svg>
