<svg width="23" height="23" viewBox="0 0 23 23" fill="none" xmlns="http://www.w3.org/2000/svg">
<path d="M16.375 2H6.79167C4.1453 2 2 4.1453 2 6.79167V16.375C2 19.0214 4.1453 21.1667 6.79167 21.1667H16.375C19.0214 21.1667 21.1667 19.0214 21.1667 16.375V6.79167C21.1667 4.1453 19.0214 2 16.375 2Z" stroke="white" stroke-width="1.4" stroke-linecap="round" stroke-linejoin="round"/>
<path d="M15.4182 10.9781C15.5364 11.7757 15.4002 12.5902 15.0289 13.3059C14.6575 14.0216 14.0699 14.6019 13.3497 14.9644C12.6295 15.3269 11.8134 15.4531 11.0173 15.325C10.2213 15.1969 9.48586 14.8211 8.91573 14.2509C8.3456 13.6808 7.96975 12.9454 7.84166 12.1494C7.71356 11.3533 7.83974 10.5371 8.20224 9.81694C8.56474 9.09673 9.1451 8.50917 9.86079 8.13781C10.5765 7.76646 11.391 7.63023 12.1886 7.7485C13.0021 7.86914 13.7553 8.24823 14.3369 8.82979C14.9184 9.41135 15.2975 10.1645 15.4182 10.9781Z" stroke="white" stroke-width="1.4" stroke-linecap="round" stroke-linejoin="round"/>
<path d="M16.8516 6.3125H16.8616" stroke="white" stroke-width="1.4" stroke-linecap="round" stroke-linejoin="round"/>
</svg>
