<svg width="77" height="77" viewBox="0 0 77 77" fill="none" xmlns="http://www.w3.org/2000/svg">
<path d="M38.5 74C58.1061 74 74 58.1061 74 38.5C74 18.8939 58.1061 3 38.5 3C18.8939 3 3 18.8939 3 38.5C3 58.1061 18.8939 74 38.5 74Z" fill="#EDEDED" fill-opacity="0.76"/>
<path d="M38.5 70C55.897 70 70 55.897 70 38.5C70 21.103 55.897 7 38.5 7C21.103 7 7 21.103 7 38.5C7 55.897 21.103 70 38.5 70Z" fill="#EDEDED" fill-opacity="0.84"/>
<path d="M38.5 67C54.2401 67 67 54.2401 67 38.5C67 22.7599 54.2401 10 38.5 10C22.7599 10 10 22.7599 10 38.5C10 54.2401 22.7599 67 38.5 67Z" fill="white"/>
<path d="M32.0833 26L51.3333 38.8333L32.0833 51.6667V26Z" fill="#B73702"/>
</svg>
